<?xml version="1.0" encoding="UTF-8" standalone="no"?>
<!DOCTYPE svg PUBLIC "-//W3C//DTD SVG 1.1//EN"
 "http://www.w3.org/Graphics/SVG/1.1/DTD/svg11.dtd">
<!-- Generated by graphviz version 2.43.0 (0)
 -->
<!-- Title: application_state_diagram Pages: 1 -->
<svg width="367pt" height="299pt"
 viewBox="0.00 0.00 367.43 299.00" xmlns="http://www.w3.org/2000/svg" xmlns:xlink="http://www.w3.org/1999/xlink">
<g id="graph0" class="graph" transform="scale(1 1) rotate(0) translate(4 295)">
<title>application_state_diagram</title>
<g id="a_graph0"><a xlink:href="index.html" xlink:title="Person Semantic Profile Document" target="_parent">
<polygon fill="white" stroke="transparent" points="-4,4 -4,-295 363.43,-295 363.43,4 -4,4"/>
<text text-anchor="middle" x="179.71" y="-275.8" font-family="Helvetica,sans-Serif" font-size="14.00">Person Semantic Profile Document</text>
</a>
</g>
<!-- Item -->
<g id="node1" class="node">
<title>Item</title>
<g id="a_node1"><a xlink:href="docs/semantic.Item.html" xlink:title="&lt;TABLE&gt;" target="_parent">
<polygon fill="lightgray" stroke="black" stroke-width="2" points="167.43,-258 95.43,-258 95.43,-216 167.43,-216 167.43,-258"/>
<text text-anchor="start" x="114.43" y="-240.8" font-family="Times,serif" font-size="14.00">Item</text>
<text text-anchor="start" x="101.43" y="-225.8" font-family="Times,serif" font-size="14.00">(Person)</text>
</a>
</g>
</g>
<!-- Item&#45;&gt;Item -->
<g id="edge4" class="edge">
<title>Item&#45;&gt;Item</title>
<path fill="none" stroke="black" d="M167.52,-250.06C177.65,-249.49 185.43,-245.13 185.43,-237 185.43,-231.92 182.39,-228.31 177.64,-226.18"/>
<polygon fill="black" stroke="black" points="178.04,-222.68 167.52,-223.94 176.52,-229.52 178.04,-222.68"/>
<g id="a_edge4_0"><a xlink:href="docs/idempotent.doRemove.html" xlink:title="&lt;TABLE&gt;">
<text text-anchor="start" x="189.93" y="-253.6" font-family="Times,serif" font-size="13.00">doRemove (idempotent)</text>
</a>
</g>
<g id="a_edge4_1"><a xlink:href="docs/idempotent.doUpdate.html" xlink:title="&lt;TABLE&gt;">
<text text-anchor="start" x="189.93" y="-233.6" font-family="Times,serif" font-size="13.00">doUpdate (idempotent)</text>
</a>
</g>
<g id="a_edge4_2"><a xlink:href="docs/safe.goItem.html" xlink:title="&lt;TABLE&gt;">
<text text-anchor="start" x="189.93" y="-213.6" font-family="Times,serif" font-size="13.00">goItem (safe)</text>
</a>
</g>
</g>
<!-- List -->
<g id="node2" class="node">
<title>List</title>
<g id="a_node2"><a xlink:href="docs/semantic.List.html" xlink:title="&lt;TABLE&gt;" target="_parent">
<polygon fill="lightgray" stroke="black" stroke-width="2" points="103.43,-128 31.43,-128 31.43,-86 103.43,-86 103.43,-128"/>
<text text-anchor="start" x="53.43" y="-110.8" font-family="Times,serif" font-size="14.00">List</text>
<text text-anchor="start" x="37.43" y="-95.8" font-family="Times,serif" font-size="14.00">(Person)</text>
</a>
</g>
</g>
<!-- Item&#45;&gt;List -->
<g id="edge5" class="edge">
<title>Item&#45;&gt;List</title>
<path fill="none" stroke="black" d="M95.32,-232.82C66.21,-228.13 27,-216.56 7.43,-188 -3.12,-172.6 -1.57,-162.35 7.43,-146 11.11,-139.32 16.51,-133.64 22.6,-128.88"/>
<polygon fill="black" stroke="black" points="24.96,-131.5 31.21,-122.95 20.99,-125.74 24.96,-131.5"/>
<g id="a_edge5_3"><a xlink:href="docs/safe.goFilter.html" xlink:title="&lt;TABLE&gt;">
<text text-anchor="start" x="11.43" y="-173.6" font-family="Times,serif" font-size="13.00">goFilter (safe)</text>
</a>
</g>
<g id="a_edge5_4"><a xlink:href="docs/safe.goList.html" xlink:title="&lt;TABLE&gt;">
<text text-anchor="start" x="11.43" y="-153.6" font-family="Times,serif" font-size="13.00">goList (safe)</text>
</a>
</g>
</g>
<!-- Home -->
<g id="node3" class="node">
<title>Home</title>
<g id="a_node3"><a xlink:href="docs/semantic.Home.html" xlink:title="Home" target="_parent">
<polygon fill="lightgray" stroke="black" stroke-width="2" points="203.93,-36 144.93,-36 144.93,0 203.93,0 203.93,-36"/>
<text text-anchor="middle" x="174.43" y="-14.3" font-family="Times,serif" font-size="14.00">Home</text>
</a>
</g>
</g>
<!-- Item&#45;&gt;Home -->
<g id="edge3" class="edge">
<title>Item&#45;&gt;Home</title>
<g id="a_edge3"><a xlink:href="docs/safe.goHome.html" xlink:title="goHome (safe)" target="_parent">
<path fill="none" stroke="black" d="M167.54,-232.68C196.4,-227.91 235.1,-216.3 254.43,-188 267.64,-168.66 268.22,-83.12 248.43,-54 240.26,-41.99 226.82,-33.99 213.62,-28.71"/>
<polygon fill="black" stroke="black" points="214.73,-25.39 204.13,-25.33 212.38,-31.99 214.73,-25.39"/>
</a>
</g>
<g id="a_edge3&#45;label"><a xlink:href="docs/safe.goHome.html" xlink:title="goHome (safe)" target="_parent">
<text text-anchor="middle" x="311.43" y="-103.6" font-family="Times,serif" font-size="13.00">goHome (safe)</text>
</a>
</g>
</g>
<!-- List&#45;&gt;Item -->
<g id="edge7" class="edge">
<title>List&#45;&gt;Item</title>
<path fill="none" stroke="black" d="M94.41,-128.01C100.07,-133.31 105.5,-139.41 109.43,-146 120.24,-164.13 125.75,-187.33 128.55,-205.63"/>
<polygon fill="black" stroke="black" points="125.11,-206.32 129.9,-215.76 132.05,-205.39 125.11,-206.32"/>
<g id="a_edge7_5"><a xlink:href="docs/unsafe.doCreate.html" xlink:title="&lt;TABLE&gt;">
<text text-anchor="start" x="128.43" y="-173.6" font-family="Times,serif" font-size="13.00">doCreate (unsafe)</text>
</a>
</g>
<g id="a_edge7_6"><a xlink:href="docs/safe.goItem.html" xlink:title="&lt;TABLE&gt;">
<text text-anchor="start" x="128.43" y="-153.6" font-family="Times,serif" font-size="13.00">goItem (safe)</text>
</a>
</g>
</g>
<!-- List&#45;&gt;List -->
<g id="edge8" class="edge">
<title>List&#45;&gt;List</title>
<path fill="none" stroke="black" d="M103.52,-115.58C113.65,-115.21 121.43,-112.35 121.43,-107 121.43,-103.66 118.39,-101.29 113.64,-99.89"/>
<polygon fill="black" stroke="black" points="113.92,-96.39 103.52,-98.42 112.91,-103.32 113.92,-96.39"/>
<g id="a_edge8_7"><a xlink:href="docs/safe.goFilter.html" xlink:title="&lt;TABLE&gt;">
<text text-anchor="start" x="125.43" y="-113.6" font-family="Times,serif" font-size="13.00">goFilter (safe)</text>
</a>
</g>
<g id="a_edge8_8"><a xlink:href="docs/safe.goList.html" xlink:title="&lt;TABLE&gt;">
<text text-anchor="start" x="125.43" y="-93.6" font-family="Times,serif" font-size="13.00">goList (safe)</text>
</a>
</g>
</g>
<!-- List&#45;&gt;Home -->
<g id="edge6" class="edge">
<title>List&#45;&gt;Home</title>
<g id="a_edge6"><a xlink:href="docs/safe.goHome.html" xlink:title="goHome (safe)" target="_parent">
<path fill="none" stroke="black" d="M53.86,-85.95C48.67,-75.59 45.47,-63.23 52.43,-54 71.24,-29.03 106.67,-20.99 134.52,-18.78"/>
<polygon fill="black" stroke="black" points="134.99,-22.26 144.78,-18.2 134.59,-15.27 134.99,-22.26"/>
</a>
</g>
<g id="a_edge6&#45;label"><a xlink:href="docs/safe.goHome.html" xlink:title="goHome (safe)" target="_parent">
<text text-anchor="middle" x="100.43" y="-57.6" font-family="Times,serif" font-size="13.00">goHome (safe)</text>
</a>
</g>
</g>
<!-- Home&#45;&gt;List -->
<g id="edge2" class="edge">
<title>Home&#45;&gt;List</title>
<g id="a_edge2"><a xlink:href="docs/safe.goList.html" xlink:title="goList (safe)" target="_parent">
<path fill="none" stroke="black" d="M170.08,-36.23C166.72,-46.55 161.14,-59.3 152.43,-68 141.55,-78.86 127.04,-86.89 113.08,-92.7"/>
<polygon fill="black" stroke="black" points="111.63,-89.51 103.56,-96.38 114.15,-96.04 111.63,-89.51"/>
</a>
</g>
<g id="a_edge2&#45;label"><a xlink:href="docs/safe.goList.html" xlink:title="goList (safe)" target="_parent">
<text text-anchor="middle" x="202.93" y="-57.6" font-family="Times,serif" font-size="13.00">goList (safe)</text>
</a>
</g>
</g>
<!-- Home&#45;&gt;Home -->
<g id="edge1" class="edge">
<title>Home&#45;&gt;Home</title>
<g id="a_edge1"><a xlink:href="docs/safe.goHome.html" xlink:title="goHome (safe)" target="_parent">
<path fill="none" stroke="black" d="M204.12,-25.88C214.01,-25.88 221.93,-23.25 221.93,-18 221.93,-14.72 218.84,-12.46 214.1,-11.23"/>
<polygon fill="black" stroke="black" points="214.44,-7.75 204.12,-10.12 213.67,-14.71 214.44,-7.75"/>
</a>
</g>
<g id="a_edge1&#45;label"><a xlink:href="docs/safe.goHome.html" xlink:title="goHome (safe)" target="_parent">
<text text-anchor="middle" x="269.93" y="-14.6" font-family="Times,serif" font-size="13.00">goHome (safe)</text>
</a>
</g>
</g>
</g>
</svg>
