<?xml version="1.0" encoding="UTF-8" standalone="no"?>
<!DOCTYPE svg PUBLIC "-//W3C//DTD SVG 1.1//EN"
 "http://www.w3.org/Graphics/SVG/1.1/DTD/svg11.dtd">
<!-- Generated by graphviz version 2.43.0 (0)
 -->
<!-- Title: application_state_diagram Pages: 1 -->
<svg width="283pt" height="179pt"
 viewBox="0.00 0.00 283.20 179.00" xmlns="http://www.w3.org/2000/svg" xmlns:xlink="http://www.w3.org/1999/xlink">
<g id="graph0" class="graph" transform="scale(1 1) rotate(0) translate(4 175)">
<title>application_state_diagram</title>
<g id="a_graph0"><a xlink:href="index.html" xlink:title="ToDo List" target="_parent">
<polygon fill="white" stroke="transparent" points="-4,4 -4,-175 279.2,-175 279.2,4 -4,4"/>
<text text-anchor="middle" x="137.6" y="-155.8" font-family="Helvetica,sans-Serif" font-size="14.00">ToDo List</text>
</a>
</g>
<!-- list -->
<g id="node1" class="node">
<title>list</title>
<g id="a_node1"><a xlink:href="docs/semantic.list.html" xlink:title="&lt;TABLE&gt;" target="_parent">
<polygon fill="lightgray" stroke="black" stroke-width="2" points="92.2,-145.5 38.2,-145.5 38.2,-88.5 92.2,-88.5 92.2,-145.5"/>
<text text-anchor="start" x="53.7" y="-127.8" font-family="Times,serif" font-size="14.00">list</text>
<text text-anchor="start" x="52.7" y="-112.8" font-family="Times,serif" font-size="14.00">(id)</text>
<text text-anchor="start" x="45.2" y="-97.8" font-family="Times,serif" font-size="14.00">(title)</text>
</a>
</g>
</g>
<!-- list&#45;&gt;list -->
<g id="edge3" class="edge">
<title>list&#45;&gt;list</title>
<path fill="none" stroke="black" d="M92.44,-127.49C102.23,-127.72 110.2,-124.22 110.2,-117 110.2,-112.49 107.09,-109.43 102.36,-107.83"/>
<polygon fill="black" stroke="black" points="102.82,-104.36 92.44,-106.51 101.89,-111.3 102.82,-104.36"/>
<g id="a_edge3_0"><a xlink:href="docs/unsafe.doAdd.html" xlink:title="&lt;TABLE&gt;">
<text text-anchor="start" x="114.7" y="-133.6" font-family="Times,serif" font-size="13.00">doAdd (unsafe)</text>
</a>
</g>
<g id="a_edge3_1"><a xlink:href="docs/idempotent.doRemove.html" xlink:title="&lt;TABLE&gt;">
<text text-anchor="start" x="114.7" y="-113.6" font-family="Times,serif" font-size="13.00">doRemove (idempotent)</text>
</a>
</g>
<g id="a_edge3_2"><a xlink:href="docs/safe.goList.html" xlink:title="&lt;TABLE&gt;">
<text text-anchor="start" x="114.7" y="-93.6" font-family="Times,serif" font-size="13.00">goList (safe)</text>
</a>
</g>
</g>
<!-- home -->
<g id="node2" class="node">
<title>home</title>
<g id="a_node2"><a xlink:href="docs/semantic.home.html" xlink:title="home" target="_parent">
<polygon fill="lightgray" stroke="black" stroke-width="2" points="93.2,-36 37.2,-36 37.2,0 93.2,0 93.2,-36"/>
<text text-anchor="middle" x="65.2" y="-14.3" font-family="Times,serif" font-size="14.00">home</text>
</a>
</g>
</g>
<!-- list&#45;&gt;home -->
<g id="edge2" class="edge">
<title>list&#45;&gt;home</title>
<g id="a_edge2"><a xlink:href="docs/safe.goHome.html" xlink:title="goHome (safe)" target="_parent">
<path fill="none" stroke="black" d="M37.89,-103.96C16.22,-92.57 -8.62,-74.24 3.2,-54 8.77,-44.45 18.02,-37.31 27.69,-32.05"/>
<polygon fill="black" stroke="black" points="29.5,-35.06 36.99,-27.57 26.46,-28.76 29.5,-35.06"/>
</a>
</g>
<g id="a_edge2&#45;label"><a xlink:href="docs/safe.goHome.html" xlink:title="goHome (safe)" target="_parent">
<text text-anchor="start" x="3.2" y="-57.6" font-family="Times,serif" font-size="13.00">goHome (safe)</text>
</a>
</g>
</g>
<!-- home&#45;&gt;list -->
<g id="edge1" class="edge">
<title>home&#45;&gt;list</title>
<g id="a_edge1"><a xlink:href="docs/safe.goList.html" xlink:title="goList (safe)" target="_parent">
<path fill="none" stroke="black" d="M89.91,-36.19C95.29,-41.25 100.25,-47.26 103.2,-54 105.7,-59.7 105.25,-62.12 103.2,-68 101.79,-72.07 99.87,-76.05 97.64,-79.87"/>
<polygon fill="black" stroke="black" points="94.56,-78.18 91.98,-88.46 100.4,-82.04 94.56,-78.18"/>
</a>
</g>
<g id="a_edge1&#45;label"><a xlink:href="docs/safe.goList.html" xlink:title="goList (safe)" target="_parent">
<text text-anchor="start" x="104.2" y="-57.6" font-family="Times,serif" font-size="13.00">goList (safe)</text>
</a>
</g>
</g>
</g>
</svg>
